<mxfile host="app.diagrams.net" agent="Mozilla/5.0 (Windows NT 10.0; Win64; x64) AppleWebKit/537.36 (KHTML, like Gecko) Chrome/125.0.0.0 Safari/537.36" version="24.7.6">
  <diagram id="C5RBs43oDa-KdzZeNtuy" name="Page-1">
    <mxGraphModel dx="1330" dy="679" grid="1" gridSize="10" guides="1" tooltips="1" connect="1" arrows="1" fold="1" page="1" pageScale="1" pageWidth="827" pageHeight="1169" math="0" shadow="0">
      <root>
        <mxCell id="WIyWlLk6GJQsqaUBKTNV-0" />
        <mxCell id="WIyWlLk6GJQsqaUBKTNV-1" parent="WIyWlLk6GJQsqaUBKTNV-0" />
        <mxCell id="2uGTDhH3tGA4NM6ieGZo-0" value="" style="rounded=0;html=1;jettySize=auto;orthogonalLoop=1;fontSize=11;endArrow=block;endFill=0;endSize=8;strokeWidth=1;shadow=0;labelBackgroundColor=none;edgeStyle=orthogonalEdgeStyle;dashed=1;exitX=0;exitY=0.5;exitDx=0;exitDy=0;fillColor=#008a00;strokeColor=#005700;" parent="WIyWlLk6GJQsqaUBKTNV-1" source="2uGTDhH3tGA4NM6ieGZo-19" edge="1">
          <mxGeometry relative="1" as="geometry">
            <mxPoint x="509" y="250" as="sourcePoint" />
            <mxPoint x="255" y="250" as="targetPoint" />
          </mxGeometry>
        </mxCell>
        <mxCell id="2uGTDhH3tGA4NM6ieGZo-1" value="No" style="rounded=0;html=1;jettySize=auto;orthogonalLoop=1;fontSize=11;endArrow=block;endFill=0;endSize=8;strokeWidth=1;shadow=0;labelBackgroundColor=none;edgeStyle=orthogonalEdgeStyle;entryX=0.5;entryY=0;entryDx=0;entryDy=0;fillColor=#e3c800;strokeColor=#B09500;" parent="WIyWlLk6GJQsqaUBKTNV-1" source="2uGTDhH3tGA4NM6ieGZo-3" target="2uGTDhH3tGA4NM6ieGZo-10" edge="1">
          <mxGeometry x="-0.7647" y="-20" relative="1" as="geometry">
            <mxPoint as="offset" />
            <mxPoint x="255" y="370" as="targetPoint" />
          </mxGeometry>
        </mxCell>
        <mxCell id="2uGTDhH3tGA4NM6ieGZo-2" value="Yes" style="edgeStyle=orthogonalEdgeStyle;rounded=0;html=1;jettySize=auto;orthogonalLoop=1;fontSize=11;endArrow=block;endFill=0;endSize=8;strokeWidth=1;shadow=0;labelBackgroundColor=none;exitX=1;exitY=0.5;exitDx=0;exitDy=0;fillColor=#e3c800;strokeColor=#B09500;" parent="WIyWlLk6GJQsqaUBKTNV-1" source="2uGTDhH3tGA4NM6ieGZo-3" target="2uGTDhH3tGA4NM6ieGZo-5" edge="1">
          <mxGeometry y="10" relative="1" as="geometry">
            <mxPoint as="offset" />
          </mxGeometry>
        </mxCell>
        <mxCell id="2uGTDhH3tGA4NM6ieGZo-3" value="Is a &lt;br&gt;time-interval ?" style="rhombus;whiteSpace=wrap;html=1;shadow=0;fontFamily=Helvetica;fontSize=12;align=center;strokeWidth=1;spacing=6;spacingTop=-4;fillColor=#fad7ac;strokeColor=#b46504;" parent="WIyWlLk6GJQsqaUBKTNV-1" vertex="1">
          <mxGeometry x="190" y="50" width="130" height="80" as="geometry" />
        </mxCell>
        <mxCell id="2uGTDhH3tGA4NM6ieGZo-4" style="edgeStyle=orthogonalEdgeStyle;rounded=0;orthogonalLoop=1;jettySize=auto;html=1;exitX=0.5;exitY=1;exitDx=0;exitDy=0;fillColor=#a20025;strokeColor=#6F0000;" parent="WIyWlLk6GJQsqaUBKTNV-1" source="2uGTDhH3tGA4NM6ieGZo-5" edge="1">
          <mxGeometry relative="1" as="geometry">
            <mxPoint x="255" y="180" as="targetPoint" />
            <Array as="points">
              <mxPoint x="355" y="180" />
              <mxPoint x="276" y="180" />
            </Array>
          </mxGeometry>
        </mxCell>
        <mxCell id="2uGTDhH3tGA4NM6ieGZo-5" value="Convert to date" style="rounded=1;whiteSpace=wrap;html=1;fontSize=12;glass=0;strokeWidth=1;shadow=0;fillColor=#a20025;fontColor=#ffffff;strokeColor=#6F0000;" parent="WIyWlLk6GJQsqaUBKTNV-1" vertex="1">
          <mxGeometry x="295" y="120" width="120" height="40" as="geometry" />
        </mxCell>
        <mxCell id="2uGTDhH3tGA4NM6ieGZo-6" value="Yes" style="edgeStyle=orthogonalEdgeStyle;rounded=0;html=1;jettySize=auto;orthogonalLoop=1;fontSize=11;endArrow=block;endFill=0;endSize=8;strokeWidth=1;shadow=0;labelBackgroundColor=none;fillColor=#e3c800;strokeColor=#B09500;" parent="WIyWlLk6GJQsqaUBKTNV-1" source="2uGTDhH3tGA4NM6ieGZo-8" target="2uGTDhH3tGA4NM6ieGZo-12" edge="1">
          <mxGeometry y="10" relative="1" as="geometry">
            <mxPoint as="offset" />
            <Array as="points">
              <mxPoint x="449" y="520" />
            </Array>
          </mxGeometry>
        </mxCell>
        <mxCell id="2uGTDhH3tGA4NM6ieGZo-8" value="d &amp;lt; end_date" style="rhombus;whiteSpace=wrap;html=1;shadow=0;fontFamily=Helvetica;fontSize=12;align=center;strokeWidth=1;spacing=6;spacingTop=-4;fillColor=#fad7ac;strokeColor=#b46504;" parent="WIyWlLk6GJQsqaUBKTNV-1" vertex="1">
          <mxGeometry x="180" y="480" width="150" height="80" as="geometry" />
        </mxCell>
        <mxCell id="2uGTDhH3tGA4NM6ieGZo-9" style="edgeStyle=orthogonalEdgeStyle;rounded=0;orthogonalLoop=1;jettySize=auto;html=1;entryX=0.5;entryY=0;entryDx=0;entryDy=0;fillColor=#a20025;strokeColor=#6F0000;" parent="WIyWlLk6GJQsqaUBKTNV-1" source="2uGTDhH3tGA4NM6ieGZo-10" target="2uGTDhH3tGA4NM6ieGZo-16" edge="1">
          <mxGeometry relative="1" as="geometry" />
        </mxCell>
        <mxCell id="2uGTDhH3tGA4NM6ieGZo-10" value="d = start_date&lt;br&gt;date_list = [d]" style="rounded=1;whiteSpace=wrap;html=1;fontSize=12;glass=0;strokeWidth=1;shadow=0;fillColor=#a20025;fontColor=#ffffff;strokeColor=#6F0000;" parent="WIyWlLk6GJQsqaUBKTNV-1" vertex="1">
          <mxGeometry x="195" y="320" width="120" height="40" as="geometry" />
        </mxCell>
        <mxCell id="2uGTDhH3tGA4NM6ieGZo-11" style="edgeStyle=orthogonalEdgeStyle;rounded=0;orthogonalLoop=1;jettySize=auto;html=1;entryX=1;entryY=0.5;entryDx=0;entryDy=0;fillColor=#a20025;strokeColor=#6F0000;" parent="WIyWlLk6GJQsqaUBKTNV-1" source="2uGTDhH3tGA4NM6ieGZo-12" target="2uGTDhH3tGA4NM6ieGZo-16" edge="1">
          <mxGeometry relative="1" as="geometry">
            <Array as="points">
              <mxPoint x="449" y="420" />
            </Array>
          </mxGeometry>
        </mxCell>
        <mxCell id="2uGTDhH3tGA4NM6ieGZo-12" value="date_list.append(d)" style="rounded=1;whiteSpace=wrap;html=1;fontSize=12;glass=0;strokeWidth=1;shadow=0;fillColor=#a20025;fontColor=#ffffff;strokeColor=#6F0000;" parent="WIyWlLk6GJQsqaUBKTNV-1" vertex="1">
          <mxGeometry x="389" y="450" width="120" height="40" as="geometry" />
        </mxCell>
        <mxCell id="2uGTDhH3tGA4NM6ieGZo-13" style="edgeStyle=orthogonalEdgeStyle;rounded=0;orthogonalLoop=1;jettySize=auto;html=1;exitX=1;exitY=0.5;exitDx=0;exitDy=0;fillColor=#008a00;strokeColor=#005700;" parent="WIyWlLk6GJQsqaUBKTNV-1" source="2uGTDhH3tGA4NM6ieGZo-18" edge="1">
          <mxGeometry relative="1" as="geometry">
            <mxPoint x="255" y="250" as="targetPoint" />
            <mxPoint x="195" y="230" as="sourcePoint" />
            <Array as="points">
              <mxPoint x="225" y="230" />
              <mxPoint x="225" y="251" />
            </Array>
          </mxGeometry>
        </mxCell>
        <mxCell id="2uGTDhH3tGA4NM6ieGZo-14" style="edgeStyle=orthogonalEdgeStyle;rounded=0;orthogonalLoop=1;jettySize=auto;html=1;exitX=0.554;exitY=0;exitDx=0;exitDy=0;entryX=0.5;entryY=0;entryDx=0;entryDy=0;exitPerimeter=0;fillColor=#008a00;strokeColor=#005700;" parent="WIyWlLk6GJQsqaUBKTNV-1" source="2uGTDhH3tGA4NM6ieGZo-20" target="2uGTDhH3tGA4NM6ieGZo-3" edge="1">
          <mxGeometry relative="1" as="geometry">
            <mxPoint x="135" y="120" as="sourcePoint" />
          </mxGeometry>
        </mxCell>
        <mxCell id="2uGTDhH3tGA4NM6ieGZo-15" style="edgeStyle=orthogonalEdgeStyle;rounded=0;orthogonalLoop=1;jettySize=auto;html=1;exitX=0.5;exitY=1;exitDx=0;exitDy=0;entryX=0.5;entryY=0;entryDx=0;entryDy=0;fillColor=#a20025;strokeColor=#6F0000;" parent="WIyWlLk6GJQsqaUBKTNV-1" source="2uGTDhH3tGA4NM6ieGZo-16" target="2uGTDhH3tGA4NM6ieGZo-8" edge="1">
          <mxGeometry relative="1" as="geometry" />
        </mxCell>
        <mxCell id="2uGTDhH3tGA4NM6ieGZo-16" value="d += tenor" style="rounded=1;whiteSpace=wrap;html=1;fillColor=#a20025;fontColor=#ffffff;strokeColor=#6F0000;" parent="WIyWlLk6GJQsqaUBKTNV-1" vertex="1">
          <mxGeometry x="195" y="400" width="120" height="40" as="geometry" />
        </mxCell>
        <mxCell id="2uGTDhH3tGA4NM6ieGZo-17" value="date_list.append(end_date)" style="ellipse;whiteSpace=wrap;html=1;fillColor=#0050ef;fontColor=#ffffff;strokeColor=#001DBC;" parent="WIyWlLk6GJQsqaUBKTNV-1" vertex="1">
          <mxGeometry x="155" y="610" width="200" height="60" as="geometry" />
        </mxCell>
        <mxCell id="2uGTDhH3tGA4NM6ieGZo-18" value="start_date&lt;br&gt;YYYY-MM-dd" style="shape=parallelogram;perimeter=parallelogramPerimeter;whiteSpace=wrap;html=1;fixedSize=1;fillColor=#008a00;fontColor=#ffffff;strokeColor=#005700;" parent="WIyWlLk6GJQsqaUBKTNV-1" vertex="1">
          <mxGeometry x="50" y="200" width="130" height="60" as="geometry" />
        </mxCell>
        <mxCell id="2uGTDhH3tGA4NM6ieGZo-19" value="frequency&lt;br&gt;&#39;1y&#39;" style="shape=parallelogram;perimeter=parallelogramPerimeter;whiteSpace=wrap;html=1;fixedSize=1;fillColor=#008a00;fontColor=#ffffff;strokeColor=#005700;" parent="WIyWlLk6GJQsqaUBKTNV-1" vertex="1">
          <mxGeometry x="319" y="200" width="130" height="60" as="geometry" />
        </mxCell>
        <mxCell id="2uGTDhH3tGA4NM6ieGZo-20" value="end_date&lt;br&gt;YYYY-MM-dd" style="shape=parallelogram;perimeter=parallelogramPerimeter;whiteSpace=wrap;html=1;fixedSize=1;fillColor=#008a00;fontColor=#ffffff;strokeColor=#005700;" parent="WIyWlLk6GJQsqaUBKTNV-1" vertex="1">
          <mxGeometry x="50" y="70" width="130" height="60" as="geometry" />
        </mxCell>
        <mxCell id="PZP6hroBYflAsApuLmSI-0" value="No" style="edgeStyle=orthogonalEdgeStyle;rounded=0;html=1;jettySize=auto;orthogonalLoop=1;fontSize=11;endArrow=block;endFill=0;endSize=8;strokeWidth=1;shadow=0;labelBackgroundColor=none;fillColor=#e3c800;strokeColor=#B09500;exitX=0.5;exitY=1;exitDx=0;exitDy=0;entryX=0.5;entryY=0;entryDx=0;entryDy=0;" edge="1" parent="WIyWlLk6GJQsqaUBKTNV-1" source="2uGTDhH3tGA4NM6ieGZo-8" target="2uGTDhH3tGA4NM6ieGZo-17">
          <mxGeometry y="10" relative="1" as="geometry">
            <mxPoint as="offset" />
            <Array as="points">
              <mxPoint x="255" y="590" />
              <mxPoint x="255" y="590" />
            </Array>
            <mxPoint x="400" y="590" as="sourcePoint" />
            <mxPoint x="519" y="560" as="targetPoint" />
          </mxGeometry>
        </mxCell>
      </root>
    </mxGraphModel>
  </diagram>
</mxfile>
